<svg width="145" height="41" viewBox="0 0 145 41" fill="none" xmlns="http://www.w3.org/2000/svg">
<path d="M139.666 2.6845C139.666 1.20077 140.857 0.00123009 142.333 0.00123009C143.808 0.00123009 145 1.19954 145 2.6845C145 4.16946 143.809 5.36776 142.333 5.36776C140.857 5.36653 139.666 4.16823 139.666 2.6845ZM112.153 19.0658C111.755 19.0658 111.358 18.666 111.358 18.324V5.36653H126.334C128.036 5.36653 129.454 6.79367 129.454 8.50624V14.499C129.454 16.2116 128.036 17.6387 126.334 17.6387H114.591C113.004 17.6387 113.004 19.0658 112.153 19.0658ZM73.5778 40.6993C72.1032 40.6993 70.9111 39.501 70.9111 38.016V2.6845C70.9111 1.20077 72.102 0.00123009 73.5778 0.00123009H97.0066C98.4812 0.00123009 99.6734 1.19954 99.6734 2.6845C99.6734 4.16946 98.4824 5.36776 97.0066 5.36776H76.2446V18.3252C76.2446 18.6672 76.642 19.0671 77.0394 19.0671C77.8904 19.0671 77.8904 17.6399 79.4787 17.6399H91.4481C92.9227 17.6399 94.1148 18.8382 94.1148 20.3232C94.1148 21.8082 92.9239 23.0065 91.4481 23.0065H79.4787C77.8904 23.0065 77.8904 21.5793 77.0394 21.5793C76.642 21.5793 76.2446 21.9792 76.2446 22.3212V35.3918L97.0078 35.3352C98.4824 35.3352 99.6746 36.5335 99.6746 38.0185C99.6746 39.5022 98.4837 40.7018 97.0078 40.7018H73.5778V40.6993ZM37.385 40.6993C35.9104 40.6993 34.7182 39.501 34.7182 38.016V2.6845C34.7182 1.20077 35.9092 0.00123009 37.385 0.00123009C38.8596 0.00123009 40.0518 1.19954 40.0518 2.6845V18.324C40.0518 18.666 40.5054 19.0658 40.8466 19.0658C41.6976 19.0658 41.6976 17.6387 43.2859 17.6387H54.9153C56.5036 17.6387 56.5036 19.0658 57.3546 19.0658C57.6946 19.0658 58.1494 18.666 58.1494 18.324V2.6845C58.1494 1.25736 59.3404 0.00123009 60.8162 0.00123009C62.292 0.00123009 63.483 1.25736 63.483 2.6845V38.016C63.483 39.4998 62.292 40.6993 60.8162 40.6993C59.3404 40.6993 58.1494 39.501 58.1494 38.016V22.32C58.1494 21.9779 57.6958 21.5781 57.3546 21.5781C56.5036 21.5781 56.5036 23.0052 54.9153 23.0052H43.2859C41.6976 23.0052 41.6976 21.5781 40.8466 21.5781C40.5066 21.5781 40.0518 21.9779 40.0518 22.32V38.0173C40.0518 39.4998 38.8596 40.6993 37.385 40.6993ZM8.45396 40.6993C6.97935 40.6993 5.78719 39.501 5.78719 38.016C5.78719 36.3035 4.36882 34.8763 2.66678 34.8763C1.19216 34.8763 0 33.678 0 32.1931V8.50624C0 7.02251 1.19094 5.82297 2.66678 5.82297C4.36882 5.82297 5.78719 4.39583 5.78719 2.68327C5.78719 1.19953 6.97813 0 8.45396 0H20.2533C21.7279 0 22.9201 1.1983 22.9201 2.68327C22.9201 4.16823 21.7292 5.36653 20.2533 5.36653H8.45396C6.75192 5.36653 5.33355 6.79367 5.33355 8.50624V32.1943C5.33355 33.9068 6.75192 35.334 8.45396 35.334H20.2533C21.9554 35.334 23.3737 33.9068 23.3737 32.1943C23.3737 30.7105 24.5647 29.511 26.0405 29.511C27.5151 29.511 28.7073 30.7093 28.7073 32.1943C28.7073 33.678 27.5163 34.8775 26.0405 34.8775C24.3385 34.8775 22.9201 36.3047 22.9201 38.0173C22.9201 39.501 21.7292 40.7005 20.2533 40.7005H8.45396V40.6993ZM108.692 40.6993C110.167 40.6993 111.359 39.501 111.359 38.016V22.32C111.359 21.9779 111.756 21.5781 112.154 21.5781C113.005 21.5781 113.005 23.0052 114.593 23.0052H126.336C127.811 23.0052 129.003 21.8069 129.003 20.322C129.003 18.6094 130.421 17.1823 132.123 17.1823C133.598 17.1823 134.79 15.984 134.79 14.499V8.50624C134.79 7.02251 133.599 5.82297 132.123 5.82297C130.421 5.82297 129.003 4.39583 129.003 2.68327C129.003 1.19953 127.812 0 126.336 0H108.692C107.218 0 106.025 1.1983 106.025 2.68327V38.0148C106.027 39.4998 107.218 40.6993 108.692 40.6993Z" fill="#FF6124"/>
<path d="M26.0393 11.1993C27.5122 11.1993 28.7061 9.99799 28.7061 8.51606C28.7061 7.03413 27.5122 5.83279 26.0393 5.83279C24.5665 5.83279 23.3726 7.03413 23.3726 8.51606C23.3726 9.99799 24.5665 11.1993 26.0393 11.1993Z" fill="#FF6124"/>
</svg>
